<svg width="24" height="24" viewBox="0 0 24 24" fill="none" xmlns="http://www.w3.org/2000/svg">
<path d="M20.25 6.375H12.375L9.87188 4.5C9.54764 4.25598 9.15268 4.12432 8.74688 4.125H3.75C3.25348 4.12747 2.778 4.3258 2.4269 4.6769C2.0758 5.028 1.87746 5.50348 1.875 6V18.75C1.87746 19.2465 2.0758 19.722 2.4269 20.0731C2.778 20.4242 3.25348 20.6225 3.75 20.625H20.25C20.7465 20.6225 21.222 20.4242 21.5731 20.0731C21.9242 19.722 22.1225 19.2465 22.125 18.75V8.25C22.1225 7.75348 21.9242 7.278 21.5731 6.9269C21.222 6.5758 20.7465 6.37747 20.25 6.375ZM4.125 6.375H8.625L10.125 7.5L8.625 8.625H4.125V6.375ZM19.875 18.375H4.125V10.875H8.74688C9.15268 10.8757 9.54764 10.744 9.87188 10.5L12.375 8.625H19.875V18.375Z" fill="white"/>
</svg>
