<svg width="24" height="24" viewBox="0 0 24 24" fill="none" xmlns="http://www.w3.org/2000/svg">
<path d="M2.90003 7.14997C3.15003 6.89997 3.44603 6.77497 3.78803 6.77497C4.12936 6.77497 4.42503 6.89997 4.67503 7.14997L12 14.475L19.35 7.12497C19.5834 6.89164 19.875 6.77497 20.225 6.77497C20.575 6.77497 20.875 6.89997 21.125 7.14997C21.375 7.39997 21.5 7.69597 21.5 8.03797C21.5 8.3793 21.375 8.67497 21.125 8.92497L12.7 17.325C12.6 17.425 12.4917 17.496 12.375 17.538C12.2584 17.5793 12.1334 17.6 12 17.6C11.8667 17.6 11.7417 17.5793 11.625 17.538C11.5084 17.496 11.4 17.425 11.3 17.325L2.87503 8.89997C2.6417 8.66664 2.52503 8.3793 2.52503 8.03797C2.52503 7.69597 2.65003 7.39997 2.90003 7.14997Z" fill="white"/>
</svg>
