<svg width="24" height="24" viewBox="0 0 24 24" fill="none" xmlns="http://www.w3.org/2000/svg">
<path d="M21.1313 10.3594L5.29688 1.5C4.96491 1.30925 4.58229 1.22525 4.20095 1.25941C3.8196 1.29357 3.458 1.44423 3.16522 1.69095C2.87244 1.93766 2.66265 2.26848 2.56433 2.63852C2.46601 3.00855 2.48392 3.39987 2.61563 3.75938L5.55938 12L2.61563 20.2406C2.48429 20.5995 2.46693 20.9902 2.56593 21.3594C2.66492 21.7285 2.87545 22.0581 3.16876 22.3031C3.50767 22.5874 3.93579 22.7434 4.37813 22.7437C4.70052 22.7449 5.01748 22.6608 5.29688 22.5L21.1313 13.6406C21.4218 13.4764 21.6636 13.238 21.8318 12.9498C22 12.6615 22.0887 12.3338 22.0887 12C22.0887 11.6662 22 11.3385 21.8318 11.0502C21.6636 10.762 21.4218 10.5236 21.1313 10.3594ZM5.07188 20.0531L7.54688 13.125H12.75C13.0484 13.125 13.3345 13.0065 13.5455 12.7955C13.7565 12.5845 13.875 12.2984 13.875 12C13.875 11.7016 13.7565 11.4155 13.5455 11.2045C13.3345 10.9935 13.0484 10.875 12.75 10.875H7.54688L5.07188 3.94688L19.4438 12L5.07188 20.0531Z" fill="white"/>
</svg>
